<svg version="1" xmlns="http://www.w3.org/2000/svg" width="213.333" height="213.333" viewBox="0 0 160.000000 160.000000"><path d="M67.7 10.5c-2.6.7-4.7 1.1-4.7.9C63 10 42.8 19 40.2 21.6c-.7.8-1.8 1.4-2.3 1.4-.5 0-4.5 3.5-8.8 7.8C18.3 41.5 11 55.3 8.3 70c-.9 4.7-.8 20.5.1 25.5 4.9 27.1 26.2 50.2 52.9 57.5 21.1 5.8 45 1.4 62.6-11.5 2.6-1.9 13.6-13 16.4-16.5 1.5-1.9 3-4.5 3.3-5.7.3-1.3.9-2.3 1.3-2.3.3 0 1.2-1.5 1.9-3.3.8-1.7 1.8-4.1 2.2-5.2 2.9-6.4 4.3-15.4 4.3-26.5 0-13.1-2.1-21.9-8.1-33.5-4.2-8.1-5.7-10-13.2-17.5-6.6-6.6-9.6-9-13.5-11-1.7-.8-3.2-1.7-3.5-2-.5-.6-6.1-3.3-7-3.4-.3-.1-1.1-.5-1.7-.9-.7-.5-1.3-.6-1.3-.2 0 .3-1.5-.1-3.4-.9-7.3-3-25.6-4.2-33.9-2.1z"/></svg>